<svg xmlns="http://www.w3.org/2000/svg" width="51.115" height="51.114" viewBox="1099.792 5520.708 51.115 51.114"><path d="M1125.35 5520.708c-14.108 0-25.558 11.45-25.558 25.557 0 14.108 11.45 25.557 25.558 25.557s25.557-11.449 25.557-25.557c0-14.108-11.449-25.557-25.557-25.557Zm10.377 37.604c-.432 0-.7-.134-1.102-.371-6.43-3.875-13.913-4.04-21.302-2.525-.401.103-.927.268-1.226.268-1 0-1.628-.793-1.628-1.628 0-1.062.629-1.566 1.401-1.731 8.44-1.866 17.066-1.7 24.424 2.7.629.402 1 .762 1 1.7s-.732 1.587-1.567 1.587Zm2.773-6.76c-.536 0-.897-.237-1.268-.433-6.44-3.813-16.046-5.349-24.589-3.03-.494.134-.762.268-1.226.268-1.103 0-2-.896-2-2 0-1.102.537-1.833 1.598-2.132 2.865-.804 5.792-1.402 10.079-1.402 6.688 0 13.15 1.66 18.24 4.69.835.494 1.165 1.133 1.165 2.03-.01 1.112-.876 2.009-2 2.009Zm3.194-7.853c-.536 0-.865-.134-1.33-.402-7.337-4.38-20.455-5.43-28.947-3.06-.371.103-.835.267-1.33.267-1.36 0-2.4-1.061-2.4-2.432 0-1.401.865-2.195 1.793-2.463 3.627-1.061 7.687-1.566 12.108-1.566 7.523 0 15.407 1.566 21.168 4.926.804.464 1.33 1.103 1.33 2.329a2.388 2.388 0 0 1-2.392 2.401Z" fill="#fff" fill-rule="evenodd" data-name="Icon awesome-spotify"/></svg>