<svg xmlns="http://www.w3.org/2000/svg" width="46.874" height="46.874" viewBox="769.093 5526.313 46.874 46.874"><g data-name="Icon ionic-logo-instagram"><path d="M802.295 5530.22c2.588 0 5.041 1.024 6.897 2.868a9.678 9.678 0 0 1 2.868 6.896v19.531c0 2.588-1.025 5.041-2.868 6.897a9.678 9.678 0 0 1-6.897 2.868h-19.53c-2.589 0-5.042-1.025-6.897-2.868a9.678 9.678 0 0 1-2.87-6.897v-19.53c0-2.588 1.026-5.042 2.87-6.897a9.678 9.678 0 0 1 6.896-2.869h19.531m0-3.906h-19.53c-7.52 0-13.672 6.152-13.672 13.671v19.531c0 7.52 6.152 13.671 13.671 13.671h19.531c7.52 0 13.672-6.152 13.672-13.671v-19.53c0-7.52-6.153-13.672-13.672-13.672Z" fill="#fff" fill-rule="evenodd" data-name="Trazado 8"/><path d="M805.225 5539.984a2.923 2.923 0 0 1-2.93-2.93 2.93 2.93 0 1 1 2.93 2.93Z" fill="#fff" fill-rule="evenodd" data-name="Trazado 9"/><path d="M792.53 5541.937c4.309 0 7.812 3.504 7.812 7.813 0 4.309-3.503 7.812-7.812 7.812-4.31 0-7.813-3.503-7.813-7.812 0-4.31 3.504-7.813 7.813-7.813m0-3.906c-6.47 0-11.719 5.25-11.719 11.719 0 6.47 5.25 11.718 11.719 11.718 6.47 0 11.718-5.249 11.718-11.718 0-6.47-5.249-11.719-11.718-11.719Z" fill="#fff" fill-rule="evenodd" data-name="Trazado 10"/></g></svg>