<svg xmlns="http://www.w3.org/2000/svg" width="62.784" height="44.144" viewBox="972.748 5527.678 62.784 44.144"><path d="M1034.22 5534.585a7.889 7.889 0 0 0-5.551-5.586c-4.896-1.32-24.53-1.32-24.53-1.32s-19.632 0-24.528 1.32a7.889 7.889 0 0 0-5.551 5.586c-1.312 4.928-1.312 15.21-1.312 15.21s0 10.282 1.312 15.21c.722 2.718 2.85 4.77 5.55 5.497 4.897 1.32 24.53 1.32 24.53 1.32s19.633 0 24.529-1.32c2.701-.727 4.829-2.779 5.55-5.497 1.313-4.928 1.313-15.21 1.313-15.21s0-10.282-1.312-15.21Zm-36.501 24.545v-18.67l16.409 9.335-16.41 9.335Z" fill="#fff" fill-rule="evenodd" data-name="Icon awesome-youtube"/></svg>