<svg xmlns="http://www.w3.org/2000/svg" width="437.988" height="22.063" viewBox="741.005 5820.937 437.988 22.063"><g data-name="Grupo 8"><g data-name="Grupo 5" transform="translate(741.005 5820.937)" clip-path="url(&quot;#a&quot;)"><path d="M222.674 11.032a3.679 3.679 0 1 1-7.358 0 3.679 3.679 0 0 1 7.358 0" fill="#fff" fill-rule="evenodd" data-name="Trazado 21"/><path d="M421.953 11.032c6.087 0 11.031-4.937 11.031-11.032 0 3.302 1.449 6.263 3.744 8.284a3.626 3.626 0 0 1 0 5.495 11.01 11.01 0 0 0-3.744 8.284c0-6.094-4.944-11.031-11.031-11.031" fill="#fff" fill-rule="evenodd" data-name="Trazado 22"/><path d="M416.938 11.032a3.679 3.679 0 1 0 7.358 0 3.679 3.679 0 0 0-7.358 0" fill="#fff" fill-rule="evenodd" data-name="Trazado 23"/><path d="M216.661 10.251h203.554v1.562H216.661v-1.562z" fill="#fff" fill-rule="evenodd" data-name="Rectángulo 9"/><path d="M21.051 10.251h203.554v1.562H21.051v-1.562z" fill="#fff" fill-rule="evenodd" data-name="Rectángulo 10"/><path d="M5.004 22.063c0-3.301-1.449-6.263-3.744-8.284a3.626 3.626 0 0 1 0-5.495A11.008 11.008 0 0 0 5.004 0c0 6.094 4.944 11.032 11.031 11.032-6.087 0-11.031 4.937-11.031 11.031" fill="#fff" fill-rule="evenodd" data-name="Trazado 24"/><path d="M21.05 11.032a3.679 3.679 0 1 1-7.358 0 3.679 3.679 0 0 1 7.358 0" fill="#fff" fill-rule="evenodd" data-name="Trazado 25"/></g></g><defs><clipPath id="a"><path d="M0 0h437.989v22.063H0V0z" data-name="Rectángulo 11"/></clipPath></defs></svg>