<svg xmlns="http://www.w3.org/2000/svg" width="712.839" height="63.896" viewBox="603.581 100 712.839 63.896"><g data-name="Componente 1 – 5"><g data-name="Grupo 1" transform="translate(603.581 100)" clip-path="url(&quot;#a&quot;)"><path d="M38.507 46.693c0 4.657-1.709 8.537-5.125 11.64-3.857 3.709-9.246 5.563-16.166 5.563-6.834 0-12.574-1.554-17.216-4.657l2.095-4.398c4.275 3.192 9.468 4.786 15.577 4.786 4.887 0 8.727-1.141 11.52-3.427 2.794-2.285 4.19-5.324 4.19-9.12 0-3.447-1.07-6.228-3.208-8.342-2.138-2.112-5.693-3.947-10.666-5.496C7.904 29.533 2.102 23.756 2.102 15.908c0-4.569 1.795-8.362 5.389-11.382C11.082 1.508 15.77 0 21.553 0 27.422 0 32.2 1.077 35.878 3.231a140.257 140.257 0 0 1-2.234 4.011c-3.768-1.982-7.842-2.976-12.223-2.976-4.907 0-8.674 1.253-11.301 3.751-2.103 2.071-3.154 4.486-3.154 7.246 0 5.69 4.642 10.088 13.93 13.193 6.045 2.069 10.383 4.312 13.01 6.726 3.067 2.846 4.6 6.683 4.6 11.511" fill="#fff" fill-rule="evenodd" data-name="Trazado 1"/><path d="M155.736 62.733h-5.652l-7.228-19.791h-26.942l-7.098 19.791h-5.65L126.822.257h5.258l23.656 62.476Zm-14.457-24.06L129.451 5.82l-11.96 32.854h23.788Z" fill="#fff" fill-rule="evenodd" data-name="Trazado 2"/><path d="M277.696 62.733h-4.862l-3.942-54.325-20.24 54.325h-3.417l-20.24-54.325-3.942 54.325h-4.862l4.337-61.57h6.045l20.37 55.23 20.37-55.23h6.047l4.336 61.57Z" fill="#fff" fill-rule="evenodd" data-name="Trazado 3"/><path d="M382.834 46.693c0 4.657-1.707 8.537-5.126 11.64-3.855 3.709-9.246 5.563-16.165 5.563-6.833 0-12.575-1.554-17.214-4.657l2.092-4.398c4.276 3.192 9.468 4.786 15.578 4.786 4.89 0 8.728-1.141 11.52-3.427 2.794-2.285 4.189-5.324 4.189-9.12 0-3.447-1.07-6.228-3.206-8.342-2.139-2.112-5.693-3.947-10.665-5.496-11.604-3.709-17.406-9.486-17.406-17.334 0-4.569 1.794-8.362 5.387-11.382C355.41 1.508 360.098 0 365.881 0c5.87 0 10.645 1.077 14.326 3.231a144.803 144.803 0 0 1-2.235 4.011c-3.768-1.982-7.844-2.976-12.222-2.976-4.908 0-8.674 1.253-11.304 3.751-2.102 2.071-3.153 4.486-3.153 7.246 0 5.69 4.642 10.088 13.929 13.193 6.047 2.069 10.384 4.312 13.013 6.726 3.066 2.846 4.6 6.683 4.6 11.511" fill="#fff" fill-rule="evenodd" data-name="Trazado 4"/><path d="M494.806 62.733h-5.652l-7.226-19.791h-26.943l-7.097 19.791h-5.65L465.892.257h5.26l23.654 62.476Zm-14.457-24.06L468.522 5.82l-11.96 32.854h23.787Z" fill="#fff" fill-rule="evenodd" data-name="Trazado 5"/><path d="M599.683 62.733h-5.127c-2.349-18.713-8.219-28.07-17.61-28.07h-12.09v28.07h-5.127V1.94c4.906-.949 10.03-1.425 15.377-1.425 6.747.088 12.091 1.382 16.033 3.882 4.555 2.934 6.837 7.157 6.837 12.677 0 7.674-4.035 12.98-12.094 15.908 4.645 2.503 8.149 7.158 10.515 13.969 1.138 3.537 2.232 8.797 3.286 15.782m-6.57-45.077c0-8.58-6.006-12.87-18.007-12.87-4.819 0-8.238.302-10.25.908v24.96h11.695c5.171 0 9.22-1.149 12.157-3.444 2.935-2.295 4.405-5.479 4.405-9.554" fill="#fff" fill-rule="evenodd" data-name="Trazado 6"/><path d="M712.839 62.733h-5.652l-7.229-19.791h-26.943l-7.095 19.791h-5.652L683.925.257h5.257l23.657 62.476Zm-14.457-24.06L686.552 5.82l-11.957 32.854h23.787Z" fill="#fff" fill-rule="evenodd" data-name="Trazado 7"/></g></g><defs><clipPath id="a"><path d="M0 0h712.838v63.896H0V0z" data-name="Rectángulo 2"/></clipPath></defs></svg>