<svg xmlns="http://www.w3.org/2000/svg" width="508.502" height="29.037" viewBox="705.581 273.502 508.502 29.037"><g data-name="Grupo 13"><g data-name="Grupo 3" transform="translate(705.581 273.502)" clip-path="url(&quot;#a&quot;)"><path d="M287.523 18.436c-3.531 2.683-7.801.247-10.299-1.722-2.611-2.059-5.706-3.296-8.904-3.406-11.458-.393-12.791 12.536-12.791 12.536s7.329-12.237 15.997-7.989c0 0 6.043 2.615 7.103 10.458 0 0 1.908-3.704-.443-7.244 2.204 1.035 5.828 2.015 9.337-2.633" fill="#fff" fill-rule="evenodd" data-name="Trazado 11"/><path d="M218.59 18.436c3.531 2.683 7.801.247 10.299-1.722 2.611-2.059 5.706-3.296 8.904-3.406 11.457-.393 12.791 12.536 12.791 12.536s-7.329-12.237-15.997-7.989c0 0-6.044 2.615-7.103 10.458 0 0-1.908-3.704.443-7.244-2.204 1.035-5.828 2.015-9.337-2.633" fill="#fff" fill-rule="evenodd" data-name="Trazado 12"/><path d="M263.802 10.549c-4.049-.779-7.741 4.217-10.004 8.24-.271.486-.519.956-.747 1.394a24.967 24.967 0 0 0-.736-1.378c-2.263-4.023-5.955-9.035-10.003-8.256 3.161-4.898 8.076-2.352 10.739 5.628 2.674-7.98 7.589-10.526 10.751-5.628" fill="#fff" fill-rule="evenodd" data-name="Trazado 13"/><path d="M251.485 5.73c-.464-2.439 1.572-5.73 1.572-5.73s2.036 3.291 1.572 5.73a1.588 1.588 0 0 1-3.144 0" fill="#fff" fill-rule="evenodd" data-name="Trazado 14"/><path d="M287.613 26.145c23.103 3.266 47.021 3.594 70.245 1.844 9.423-.71 18.824-1.858 28.112-3.615 9.898-1.872 19.353-4.78 28.925-7.855 16.309-5.239 33.626-9.097 50.858-8.347 5.885.256 12.972.75 18.322 3.568.86.453 1.625-.851.763-1.305-4.141-2.182-9.302-2.878-13.87-3.381-14.785-1.625-29.956.792-44.258 4.467-10.24 2.632-20.097 6.498-30.358 9.047-9.613 2.388-19.414 3.997-29.258 5.064-17.227 1.867-34.623 2.143-51.923 1.34-9.003-.417-18.369-1.043-27.156-2.285-.952-.134-1.363 1.322-.402 1.458" fill="#fff" fill-rule="evenodd" data-name="Trazado 15"/><path d="M220.488 24.739c-23.518 3.324-48.369 3.587-72.138 1.608-9.83-.818-19.628-2.13-29.287-4.149-10.105-2.113-19.697-5.538-29.564-8.482C74.037 9.102 57.632 5.815 41.416 6.78c-5.767.343-12.517.949-17.751 3.706-.861.454-.098 1.759.763 1.306 4.266-2.247 9.771-2.883 14.476-3.312 15.684-1.431 31.65 1.467 46.703 5.683 10.049 2.815 19.774 6.518 29.971 8.822 9.273 2.096 18.696 3.508 28.153 4.452 17.038 1.701 34.227 1.883 51.321 1.015 8.62-.438 17.285-1.046 25.838-2.255.959-.136.551-1.593-.402-1.458" fill="#fff" fill-rule="evenodd" data-name="Trazado 16"/><path d="M10.609 1.739c-.783 4.026 4.242 7.697 8.287 9.947.489.269.962.516 1.403.742-.441.216-.914.463-1.386.732-4.046 2.25-9.087 5.921-8.304 9.946-4.927-3.143-2.366-8.03 5.66-10.678C8.243 9.77 5.682 4.883 10.609 1.739" fill="#fff" fill-rule="evenodd" data-name="Trazado 17"/><path d="M5.763 13.985C3.31 14.446 0 12.423 0 12.423s3.31-2.024 5.763-1.563a1.576 1.576 0 0 1 0 3.125" fill="#fff" fill-rule="evenodd" data-name="Trazado 18"/><path d="M497.893 1.739c.783 4.026-4.242 7.697-8.287 9.947a53.84 53.84 0 0 1-1.403.742c.441.216.914.463 1.387.732 4.046 2.25 9.086 5.921 8.303 9.946 4.927-3.143 2.366-8.03-5.66-10.678 8.026-2.658 10.587-7.545 5.66-10.689" fill="#fff" fill-rule="evenodd" data-name="Trazado 19"/><path d="M502.74 13.985c2.452.461 5.762-1.562 5.762-1.562s-3.31-2.024-5.762-1.563a1.576 1.576 0 0 0 0 3.125" fill="#fff" fill-rule="evenodd" data-name="Trazado 20"/></g></g><defs><clipPath id="a"><path d="M0 0h508.503v29.037H0V0z" data-name="Rectángulo 8"/></clipPath></defs></svg>